<?xml version="1.0" encoding="utf-8"?><svg viewBox="0 0 384 512" xmlns="http://www.w3.org/2000/svg" xmlns:xlink="http://www.w3.org/1999/xlink"><style>:root>svg{display:none}:root>svg:target{display:block}</style><svg viewBox="0 0 14 9" id="arrow-down" xmlns="http://www.w3.org/2000/svg"><path fill-rule="evenodd" clip-rule="evenodd" d="M13.47.864a.9.9 0 010 1.272L7.636 7.97a.9.9 0 01-1.272 0L.53 2.136A.9.9 0 111.803.864L7 6.06 12.197.864a.9.9 0 011.273 0z"/></svg><svg viewBox="0 0 20 14" id="arrow-link" xmlns="http://www.w3.org/2000/svg"><path fill-rule="evenodd" clip-rule="evenodd" d="M12.47.47a.75.75 0 000 1.06l4.72 4.72H1a.75.75 0 000 1.5h16.19l-4.72 4.72a.75.75 0 101.06 1.06l6-6a.75.75 0 000-1.06l-6-6a.75.75 0 00-1.06 0z"/></svg><svg viewBox="0 0 24 24" id="cart" xmlns="http://www.w3.org/2000/svg"><path fill-rule="evenodd" clip-rule="evenodd" d="M3.15 3.408a7.57 7.57 0 00-.496-.008H1a.9.9 0 110-1.8H2.681c.216 0 .425 0 .603.013.197.015.42.05.649.152a1.9 1.9 0 01.803.675c.14.208.212.422.26.613a8.487 8.487 0 01.121.619l.253 1.45 13.092.388c.513.015.95.028 1.309.067.377.042.744.12 1.092.305A2.9 2.9 0 0122.1 7.154c.175.355.242.723.272 1.102.029.36.029.797.029 1.31v.068c0 .482 0 .894-.026 1.235-.029.36-.09.71-.25 1.05a2.9 2.9 0 01-1.142 1.258c-.323.192-.666.287-1.021.35-.337.059-.747.099-1.227.145l-9.728.941c-.492.048-.912.089-1.262.095-.369.006-.73-.023-1.091-.155a2.9 2.9 0 01-1.36-1.036c-.223-.312-.347-.653-.438-1.01a17.24 17.24 0 01-.244-1.242L3.344 3.98a7.569 7.569 0 00-.093-.486.774.774 0 00-.018-.06.1.1 0 00-.021-.019.775.775 0 00-.063-.007zm2.534 3.524l.694 3.991c.092.53.153.875.22 1.136.065.251.118.353.16.412a1.1 1.1 0 00.515.392c.068.025.18.05.44.045.27-.005.618-.038 1.153-.09l9.661-.934c.522-.051.862-.085 1.122-.13.248-.044.352-.088.413-.124a1.1 1.1 0 00.433-.477c.03-.064.064-.172.084-.424.02-.262.021-.604.021-1.129 0-.556 0-.921-.023-1.2-.022-.269-.059-.381-.091-.447a1.1 1.1 0 00-.469-.482c-.064-.034-.175-.075-.443-.105-.279-.03-.643-.042-1.2-.058l-12.69-.376zM8.5 17.9a1.1 1.1 0 100 2.2 1.1 1.1 0 000-2.2zM5.6 19a2.9 2.9 0 115.8 0 2.9 2.9 0 01-5.8 0zM18 17.9a1.1 1.1 0 100 2.2 1.1 1.1 0 000-2.2zM15.1 19a2.9 2.9 0 115.8 0 2.9 2.9 0 01-5.8 0z"/></svg><svg viewBox="0 0 24 21" id="favorite" xmlns="http://www.w3.org/2000/svg"><path fill-rule="evenodd" clip-rule="evenodd" d="M12 18.023c-4.64-2.635-7.236-5.26-8.493-7.55C2.224 8.138 2.33 6.156 3.052 4.74c1.478-2.9 5.684-3.828 8.242-.593l.705.893.707-.893c2.558-3.235 6.764-2.307 8.242.593.721 1.415.827 3.398-.456 5.735-1.257 2.289-3.852 4.914-8.492 7.549zm0-15.778C8.52-1.144 3.337.215 1.448 3.922.42 5.939.4 8.555 1.93 11.34c1.517 2.763 4.548 5.69 9.634 8.502l.436.24.435-.24c5.086-2.811 8.118-5.74 9.635-8.502 1.53-2.785 1.51-5.4.482-7.418C20.662.215 15.48-1.144 12 2.245z"/></svg><svg viewBox="0 0 384 512" id="location" xmlns="http://www.w3.org/2000/svg"><path d="M172.268 501.67C26.97 291.031 0 269.413 0 192 0 85.961 85.961 0 192 0s192 85.961 192 192c0 77.413-26.97 99.031-172.268 309.67-9.535 13.774-29.93 13.773-39.464 0zM192 272c44.183 0 80-35.817 80-80s-35.817-80-80-80-80 35.817-80 80 35.817 80 80 80z"/></svg><svg viewBox="0 0 16 16" id="phone" xmlns="http://www.w3.org/2000/svg"><path d="M11.43 11.067l-.515.773c-.103.154-.239.286-.418.334-.588.155-2.147.225-4.521-2.15C3.6 7.65 3.67 6.09 3.826 5.503c.048-.18.18-.315.334-.418l.773-.516a1.253 1.253 0 00.348-1.737L3.82.642A1.253 1.253 0 002.283.184l-.659.282c-.5.215-.908.6-1.152 1.086-.203.407-.36.836-.382 1.29-.068 1.432.246 4.96 4.176 8.89 3.93 3.93 7.458 4.243 8.89 4.176.454-.021.883-.179 1.29-.382a2.302 2.302 0 001.086-1.152l.282-.66c.238-.554.046-1.2-.456-1.535l-2.191-1.46a1.253 1.253 0 00-1.737.347z"/></svg><svg viewBox="0 0 16 16" id="search" xmlns="http://www.w3.org/2000/svg"><path fill-rule="evenodd" clip-rule="evenodd" d="M6.75 2.233a4.517 4.517 0 100 9.034 4.517 4.517 0 000-9.034zM.433 6.75a6.317 6.317 0 1111.375 3.785l3.495 3.495a.9.9 0 01-1.273 1.273l-3.495-3.495A6.317 6.317 0 01.434 6.75z"/></svg><svg viewBox="0 0 18 18" id="send" xmlns="http://www.w3.org/2000/svg"><path d="M17.782.217a.75.75 0 00-.787-.172l-16.5 6a.75.75 0 000 1.402l6.442 2.573 4.756-4.77 1.057 1.057-4.777 4.778 2.58 6.442a.75.75 0 00.697.473.75.75 0 00.69-.495l6-16.5a.75.75 0 00-.158-.788z"/></svg><svg viewBox="0 0 18 20" id="share" xmlns="http://www.w3.org/2000/svg"><path d="M15 14c-.788 0-1.5.31-2.034.807L5.91 10.7c.05-.23.09-.46.09-.7 0-.24-.04-.47-.09-.7l7.05-4.11c.54.5 1.25.81 2.04.81 1.66 0 3-1.34 3-3s-1.34-3-3-3-3 1.34-3 3c0 .24.04.47.09.7L5.04 7.81C4.5 7.31 3.79 7 3 7c-1.66 0-3 1.34-3 3s1.34 3 3 3c.79 0 1.5-.31 2.04-.81l7.048 4.118A2.984 2.984 0 0012 17a3 3 0 103-3z"/></svg></svg>